<svg width="36" height="36" viewBox="0 0 36 36" fill="none" xmlns="http://www.w3.org/2000/svg">
<path d="M31.7165 13.5002H28.3325L27.4325 11.1602C26.4965 8.7482 24.1565 7.2002 21.5645 7.2002H14.4365C11.8445 7.2002 9.54045 8.7482 8.56845 11.1602L7.63245 13.5002H4.24845C3.88845 13.5002 3.56445 13.7882 3.56445 14.1842C3.56445 14.2202 3.56445 14.2922 3.60045 14.3282L3.92445 15.6962C3.99645 15.9842 4.28445 16.2002 4.57245 16.2002H5.76045C4.96845 16.8842 4.50045 17.8562 4.50045 18.9002V21.6002C4.50045 22.4642 4.82445 23.2922 5.40045 23.9762V27.0002C5.40045 28.0082 6.19245 28.8002 7.20045 28.8002H9.00045C10.0085 28.8002 10.8005 28.0082 10.8005 27.0002V25.2002H25.2005V27.0002C25.2005 28.0082 25.9925 28.8002 27.0005 28.8002H28.8005C29.8085 28.8002 30.6005 28.0082 30.6005 27.0002V23.9402C31.1765 23.2922 31.5005 22.4642 31.5005 21.5642V18.8642C31.5005 17.8202 31.0325 16.8482 30.2405 16.1642H31.3565C31.6805 16.1642 31.9325 15.9482 32.0045 15.6602L32.3285 14.2922C32.4005 13.9322 32.1845 13.5722 31.8245 13.4642C31.8245 13.5002 31.7885 13.5002 31.7165 13.5002ZM11.9165 12.4922C12.3125 11.4482 13.3205 10.8002 14.4365 10.8002H21.5645C22.6805 10.8002 23.6885 11.4842 24.0845 12.4922L25.2005 15.3002H10.8005L11.9165 12.4922ZM9.00045 21.6002C8.06445 21.6722 7.27245 20.9522 7.20045 20.0162C7.20045 19.9442 7.20045 19.8722 7.20045 19.8002C7.12845 18.8642 7.84845 18.0722 8.78445 18.0002H9.00045C10.0805 18.0002 11.7005 19.6202 11.7005 20.7002C11.7005 21.7802 10.0805 21.6002 9.00045 21.6002ZM27.0005 21.6002C25.9205 21.6002 24.3005 21.7802 24.3005 20.7002C24.3005 19.6202 25.9205 18.0002 27.0005 18.0002C27.9365 17.9282 28.7285 18.6482 28.8005 19.5842V19.8002C28.8725 20.7362 28.1525 21.5282 27.2165 21.6002C27.1445 21.6002 27.0725 21.6002 27.0005 21.6002Z" fill="white"/>
</svg>
