<svg width="36" height="36" viewBox="0 0 36 36" fill="none" xmlns="http://www.w3.org/2000/svg">
<g clip-path="url(#clip0_274_934)">
<g clip-path="url(#clip1_274_934)">
<path d="M10.7148 7.13773L11.6894 8.10878V4.69922H8.74023V8.10878L9.71479 7.13773C9.85289 7.00033 10.0342 6.93091 10.2148 6.93091C10.3954 6.93091 10.5768 7.00033 10.7148 7.13773Z" fill="white"/>
<path d="M18.0498 5.40698C18.0498 5.01674 17.7381 4.69873 17.3415 4.69873H13.1061V9.81236C13.1061 10.1027 12.9361 10.357 12.667 10.4703C12.582 10.5057 12.4899 10.5206 12.3979 10.5206C12.2137 10.5206 12.0366 10.4491 11.895 10.3152L10.2164 8.63667L8.53078 10.3152C8.33245 10.5206 8.02791 10.5773 7.75876 10.4703C7.49669 10.357 7.3267 10.1027 7.3267 9.81236V4.69873H3.08427C2.69469 4.69873 2.37598 5.01674 2.37598 5.40698V13.3317H8.26871L7.94291 13.0059C7.66668 12.7304 7.66668 12.2842 7.94291 12.0073C8.21911 11.7318 8.66533 11.7318 8.94157 12.0073L10.4785 13.5371C10.5422 13.6008 10.5918 13.6795 10.6343 13.7716C10.7051 13.9415 10.7051 14.1398 10.6343 14.3091C10.5918 14.3941 10.5422 14.4727 10.4785 14.5428L8.94157 16.0734C8.80698 16.215 8.62282 16.2787 8.44579 16.2787C8.26163 16.2787 8.07747 16.215 7.94291 16.0734C7.66668 15.7971 7.66668 15.351 7.94291 15.074L8.26871 14.7482H2.37598V19.4234H18.0498V5.40698Z" fill="white"/>
<path d="M32.7178 20.8398H1.7102C1.32067 20.8398 1.00195 21.1578 1.00195 21.5481V27.1851C1.00195 27.5747 1.32067 27.8934 1.7102 27.8934H3.99788C3.99788 25.2303 6.1581 23.0701 8.82114 23.0701C11.4771 23.0701 13.6444 25.2303 13.6444 27.8934H22.363C22.363 25.2303 24.5233 23.0701 27.1863 23.0701C29.8423 23.0701 32.0096 25.2303 32.0096 27.8934H34.2902C34.6868 27.8934 34.9984 27.5747 34.9984 27.1851V23.1268C34.9984 21.8661 33.9785 20.8398 32.7178 20.8398Z" fill="white"/>
<path d="M33.2423 12.8996C33.2423 12.7437 33.1927 12.595 33.1006 12.4675L29.6656 7.97713C29.531 7.8001 29.3256 7.69385 29.106 7.69385H20.012C19.6224 7.69385 19.3037 8.01256 19.3037 8.4021V19.4226H33.2423V12.8996ZM30.0905 14.8544C30.0905 15.2439 29.7718 15.5626 29.3822 15.5626H23.1637C22.7742 15.5626 22.4555 15.2439 22.4555 14.8544V10.8527C22.4555 10.4561 22.7742 10.1444 23.1637 10.1444H27.5408C27.7674 10.1444 27.9728 10.2436 28.1074 10.4207L29.9418 12.8287C30.0409 12.9492 30.0905 13.105 30.0905 13.2607V14.8544Z" fill="white"/>
<path d="M27.1857 24.4854C25.3039 24.4854 23.7783 26.0109 23.7783 27.8935C23.7783 29.7754 25.3039 31.3016 27.1857 31.3016C29.0683 31.3016 30.5939 29.7754 30.5939 27.8935C30.5939 26.0109 29.0683 24.4854 27.1857 24.4854Z" fill="white"/>
<path d="M9.60838 31.1993C11.4398 30.7664 12.5735 28.9308 12.1406 27.0994C11.7077 25.268 9.87207 24.1343 8.04067 24.5672C6.20926 25.0001 5.07555 26.8357 5.50847 28.6671C5.94138 30.4985 7.77697 31.6322 9.60838 31.1993Z" fill="white"/>
</g>
</g>
<defs>
<clipPath id="clip0_274_934">
<rect width="36" height="36" fill="white"/>
</clipPath>
<clipPath id="clip1_274_934">
<rect width="36" height="36" fill="white"/>
</clipPath>
</defs>
</svg>
