<svg width="36" height="36" viewBox="0 0 36 36" fill="none" xmlns="http://www.w3.org/2000/svg">
<g clip-path="url(#clip0_274_924)">
<g clip-path="url(#clip1_274_924)">
<path d="M15.3776 28.7723C14.4721 29.0599 13.4874 29.0445 12.583 28.7154C11.6786 28.3861 10.9147 27.7651 10.4058 26.9629C9.45631 26.9233 8.53648 26.572 7.7993 25.9535C7.70619 25.8755 7.61665 25.7936 7.53123 25.7085L5.17962 30.6298C5.00302 30.9992 5.05328 31.437 5.30871 31.757C5.56414 32.077 5.97997 32.2228 6.3796 32.1322L11.0933 31.0632L13.2227 35.4022C13.4023 35.7681 13.7745 35.9999 14.1815 35.9999H14.1873C14.5968 35.9977 14.9689 35.7615 15.1453 35.3921L17.8789 29.6715C16.9682 29.641 16.0926 29.3233 15.3776 28.7723Z" fill="white"/>
<path d="M28.2466 25.9535C27.5095 26.572 26.5894 26.923 25.6401 26.9626C25.1312 27.7651 24.3671 28.3861 23.4627 28.7152C22.5585 29.0445 21.5738 29.0599 20.6683 28.7723C19.9534 29.3233 19.0778 29.641 18.167 29.6715L20.9004 35.3921C21.077 35.7615 21.4491 35.9974 21.8587 35.9996H21.8642C22.2715 35.9996 22.6434 35.7681 22.823 35.4022L24.9527 31.0632L29.6663 32.1319C30.0657 32.2228 30.4815 32.077 30.7369 31.757C30.9927 31.437 31.0426 30.9992 30.8663 30.6298L28.5144 25.7085C28.429 25.7936 28.3397 25.8752 28.2466 25.9535Z" fill="white"/>
<path d="M31.1501 13.1119C31.533 12.6216 31.6907 11.9896 31.583 11.3782C31.475 10.7668 31.1109 10.2269 30.5835 9.89699C30.168 9.63717 29.9823 9.12795 30.1339 8.66158C30.3259 8.06997 30.258 7.42233 29.9474 6.88455C29.637 6.34678 29.11 5.96418 28.5016 5.83454C28.0223 5.73264 27.6738 5.31736 27.6565 4.82765C27.6345 4.20582 27.3492 3.62053 26.8737 3.22145C26.398 2.8221 25.7721 2.64302 25.1557 2.72927C24.6707 2.79766 24.201 2.5263 24.0173 2.07201C23.7841 1.49523 23.3158 1.0426 22.7322 0.830288C22.1488 0.617978 21.499 0.663571 20.9499 0.955532C20.5171 1.18542 19.9831 1.09121 19.6549 0.727017C19.2388 0.265044 18.6439 0 18.0229 0C17.4019 0 16.807 0.265044 16.3909 0.727017C16.0627 1.09121 15.5287 1.18542 15.0959 0.955532C14.5468 0.663571 13.897 0.617978 13.3136 0.830288C12.73 1.0426 12.2617 1.49523 12.0285 2.07201C11.8448 2.5263 11.3754 2.79766 10.89 2.72927C10.274 2.64302 9.64777 2.8221 9.17207 3.22145C8.69636 3.62053 8.41127 4.20582 8.3893 4.82765C8.37199 5.31736 8.02373 5.73264 7.54418 5.83481C6.93581 5.96418 6.40874 6.34678 6.09838 6.88455C5.78774 7.42233 5.7199 8.06997 5.91189 8.66158C6.06323 9.12795 5.87783 9.63717 5.46228 9.89727C4.93493 10.2269 4.57074 10.7668 4.4628 11.3782C4.35513 11.9899 4.51279 12.6216 4.89566 13.1121C5.19723 13.4983 5.19723 14.0405 4.89566 14.4266C4.51279 14.9169 4.35513 15.5489 4.4628 16.1603C4.57074 16.7719 4.93493 17.3116 5.46228 17.6415C5.87783 17.9013 6.0635 18.4105 5.91216 18.8769C5.7199 19.4685 5.78802 20.1162 6.09838 20.6539C6.40902 21.1917 6.93581 21.5743 7.54418 21.704C8.02373 21.8058 8.37199 22.2211 8.3893 22.7111C8.41127 23.3327 8.69664 23.9182 9.17234 24.3173C9.64805 24.7164 10.2743 24.8957 10.89 24.8092C11.3754 24.7414 11.8448 25.0122 12.0285 25.4668C12.2617 26.0433 12.7303 26.4959 13.3136 26.7082C13.8973 26.9205 14.5468 26.8749 15.0961 26.5832C15.2544 26.4989 15.4266 26.4583 15.5968 26.4583C15.8921 26.4583 16.1827 26.5805 16.3909 26.8115C16.8073 27.2737 17.4022 27.5385 18.0229 27.5385C18.6439 27.5385 19.2388 27.2734 19.6552 26.8115C19.9831 26.4473 20.5171 26.3533 20.9499 26.5832C21.4992 26.8752 22.1488 26.9205 22.7324 26.7082C23.3158 26.4959 23.7841 26.0433 24.0173 25.4668C24.201 25.0122 24.6707 24.7411 25.156 24.8092C25.7718 24.8955 26.398 24.7164 26.8737 24.3173C27.3494 23.9182 27.6348 23.3327 27.6568 22.7111C27.6738 22.2211 28.0223 21.8061 28.5016 21.704C29.11 21.5743 29.637 21.1917 29.9477 20.6539C30.258 20.1162 30.3259 19.4685 30.1339 18.8769C29.9826 18.4108 30.168 17.9013 30.5835 17.6415C31.1111 17.3116 31.4753 16.7719 31.5833 16.1605C31.6909 15.5489 31.5333 14.9172 31.1504 14.4266C30.8486 14.0402 30.8486 13.4983 31.1501 13.1119ZM18.0229 23.1283C12.8624 23.1283 8.66368 18.9299 8.66368 13.7694C8.66368 8.60858 12.8624 4.41017 18.0229 4.41017C23.1834 4.41017 27.3818 8.60858 27.3818 13.7694C27.3818 18.9299 23.1834 23.1283 18.0229 23.1283Z" fill="white"/>
<path d="M18.0227 6.54639C14.0399 6.54639 10.7998 9.78652 10.7998 13.7693C10.7998 17.7518 14.0399 20.992 18.0227 20.992C22.0055 20.992 25.2454 17.7518 25.2454 13.7693C25.2454 9.78652 22.0053 6.54639 18.0227 6.54639ZM13.5112 12.4444C13.9284 12.0272 14.6046 12.0272 15.0218 12.4444L17.1504 14.573L21.0236 10.6998C21.4408 10.2825 22.117 10.2825 22.5343 10.6998C22.9515 11.1167 22.9515 11.7932 22.5343 12.2101L17.9057 16.8389C17.7055 17.0391 17.4336 17.1517 17.1504 17.1517C16.8673 17.1517 16.5956 17.0391 16.3951 16.8389L13.5115 13.955C13.094 13.5378 13.094 12.8616 13.5112 12.4444Z" fill="white"/>
</g>
</g>
<defs>
<clipPath id="clip0_274_924">
<rect width="36" height="36" fill="white"/>
</clipPath>
<clipPath id="clip1_274_924">
<rect width="36" height="36" fill="white"/>
</clipPath>
</defs>
</svg>
